<?xml version="1.0" standalone="no"?>
<!DOCTYPE svg PUBLIC "-//W3C//DTD SVG 20010904//EN"
 "http://www.w3.org/TR/2001/REC-SVG-20010904/DTD/svg10.dtd">
<svg version="1.0" xmlns="http://www.w3.org/2000/svg"
 width="429.000000pt" height="400.000000pt" viewBox="0 0 429.000000 400.000000"
 preserveAspectRatio="xMidYMid meet">

<g transform="translate(0.000000,400.000000) scale(0.100000,-0.100000)"
fill="#000000" stroke="none">
<path d="M427 3688 c6 -7 95 -125 199 -262 104 -136 276 -361 381 -500 106
-138 252 -330 325 -426 73 -96 165 -215 203 -265 91 -116 319 -416 329 -432 5
-9 -44 -72 -140 -180 -81 -93 -256 -292 -388 -443 -132 -151 -348 -398 -481
-549 -319 -363 -355 -405 -355 -413 0 -5 128 -8 284 -8 l284 0 118 137 c66 75
190 218 278 317 87 100 276 315 419 480 l261 298 20 -28 c19 -26 154 -203 565
-739 80 -104 193 -252 250 -327 l104 -138 589 0 590 0 -38 53 c-21 28 -102
135 -179 237 -78 102 -195 257 -261 345 -66 88 -221 293 -344 455 -123 162
-276 365 -340 450 -64 85 -171 227 -239 314 l-122 159 24 26 c13 14 113 130
223 256 109 127 268 309 353 405 84 96 255 292 379 435 124 143 246 281 271
308 l45 47 -291 0 -291 0 -108 -122 c-60 -68 -111 -125 -114 -128 -3 -3 -121
-138 -261 -300 -382 -441 -484 -555 -496 -555 -6 0 -91 106 -189 235 -406 537
-543 719 -600 792 l-59 78 -604 0 c-481 0 -601 -3 -594 -12z m1119 -441 c51
-67 130 -171 176 -232 46 -60 252 -333 458 -605 206 -272 453 -599 549 -727
585 -772 841 -1113 841 -1117 0 -3 -74 -6 -165 -6 l-164 0 -128 168 c-70 92
-186 244 -258 337 -72 94 -181 235 -241 315 -114 150 -820 1072 -1037 1355
-67 87 -165 216 -218 285 -52 69 -132 173 -177 232 -45 58 -82 109 -82 112 0
3 80 6 178 6 l177 0 91 -123z"/>
</g>
</svg>
